<mxfile host="app.diagrams.net" modified="2023-12-23T01:50:10.892Z" agent="Mozilla/5.0 (Macintosh; Intel Mac OS X 10_15_7) AppleWebKit/537.36 (KHTML, like Gecko) Chrome/120.0.0.0 Safari/537.36" etag="HiIbeQR2Bt4JbmslLhqw" version="22.1.11" type="github" pages="3">
  <diagram name="api调用框架" id="EQ1F0b58VZMD9m9aYOTj">
    <mxGraphModel dx="2261" dy="795" grid="1" gridSize="10" guides="1" tooltips="1" connect="1" arrows="1" fold="1" page="1" pageScale="1" pageWidth="827" pageHeight="1169" math="0" shadow="0">
      <root>
        <mxCell id="0" />
        <mxCell id="1" parent="0" />
        <mxCell id="U5E92qtXcNm4YYFnFJic-3" value="&lt;b&gt;&lt;font style=&quot;font-size: 15px;&quot;&gt;&amp;nbsp; &amp;nbsp; &amp;nbsp;api-call-sdk&lt;/font&gt;&lt;/b&gt;" style="rounded=0;whiteSpace=wrap;html=1;align=left;verticalAlign=top;" parent="1" vertex="1">
          <mxGeometry x="-403" y="610" width="940" height="610" as="geometry" />
        </mxCell>
        <mxCell id="U5E92qtXcNm4YYFnFJic-4" value="&lt;span style=&quot;font-size: 15px;&quot;&gt;api-flow&lt;/span&gt;" style="rounded=0;whiteSpace=wrap;html=1;align=left;verticalAlign=top;fillColor=#f5f5f5;fontColor=#333333;strokeColor=#666666;" parent="1" vertex="1">
          <mxGeometry x="-187" y="650" width="516" height="400" as="geometry" />
        </mxCell>
        <mxCell id="U5E92qtXcNm4YYFnFJic-5" value="&lt;span style=&quot;font-size: 15px;&quot;&gt;api-config&lt;/span&gt;" style="rounded=0;whiteSpace=wrap;html=1;align=left;verticalAlign=top;fillColor=#f5f5f5;fontColor=#333333;strokeColor=#666666;" parent="1" vertex="1">
          <mxGeometry x="-353" y="650" width="150" height="400" as="geometry" />
        </mxCell>
        <mxCell id="U5E92qtXcNm4YYFnFJic-6" value="&lt;font style=&quot;font-size: 15px;&quot;&gt;&amp;nbsp; &amp;nbsp; &amp;nbsp;data-context&lt;/font&gt;" style="rounded=0;whiteSpace=wrap;html=1;align=left;verticalAlign=top;fillColor=#f5f5f5;fontColor=#333333;strokeColor=#666666;" parent="1" vertex="1">
          <mxGeometry x="347" y="650" width="170" height="400" as="geometry" />
        </mxCell>
        <mxCell id="U5E92qtXcNm4YYFnFJic-28" style="edgeStyle=orthogonalEdgeStyle;rounded=0;orthogonalLoop=1;jettySize=auto;html=1;entryX=0.5;entryY=0;entryDx=0;entryDy=0;strokeColor=#000000;strokeWidth=2;fontColor=#000000;" parent="1" source="U5E92qtXcNm4YYFnFJic-32" target="U5E92qtXcNm4YYFnFJic-54" edge="1">
          <mxGeometry relative="1" as="geometry" />
        </mxCell>
        <mxCell id="U5E92qtXcNm4YYFnFJic-29" style="rounded=0;orthogonalLoop=1;jettySize=auto;html=1;entryX=0;entryY=0.5;entryDx=0;entryDy=0;strokeColor=#000000;strokeWidth=1;fontColor=#000000;exitX=1;exitY=0.5;exitDx=0;exitDy=0;" parent="1" source="U5E92qtXcNm4YYFnFJic-32" target="U5E92qtXcNm4YYFnFJic-60" edge="1">
          <mxGeometry relative="1" as="geometry" />
        </mxCell>
        <mxCell id="U5E92qtXcNm4YYFnFJic-30" style="rounded=0;orthogonalLoop=1;jettySize=auto;html=1;entryX=0;entryY=0.5;entryDx=0;entryDy=0;strokeColor=#000000;strokeWidth=1;fontColor=#000000;exitX=1;exitY=0.75;exitDx=0;exitDy=0;" parent="1" source="U5E92qtXcNm4YYFnFJic-32" target="U5E92qtXcNm4YYFnFJic-61" edge="1">
          <mxGeometry relative="1" as="geometry" />
        </mxCell>
        <mxCell id="U5E92qtXcNm4YYFnFJic-31" style="rounded=0;orthogonalLoop=1;jettySize=auto;html=1;strokeColor=#000000;strokeWidth=1;fontColor=#000000;" parent="1" source="U5E92qtXcNm4YYFnFJic-32" target="U5E92qtXcNm4YYFnFJic-67" edge="1">
          <mxGeometry relative="1" as="geometry" />
        </mxCell>
        <mxCell id="U5E92qtXcNm4YYFnFJic-32" value="1.组装请求外部服务的报文" style="rounded=1;whiteSpace=wrap;html=1;align=left;verticalAlign=top;" parent="1" vertex="1">
          <mxGeometry x="-167" y="680" width="480" height="100" as="geometry" />
        </mxCell>
        <mxCell id="U5E92qtXcNm4YYFnFJic-33" value="" style="edgeStyle=orthogonalEdgeStyle;rounded=0;orthogonalLoop=1;jettySize=auto;html=1;strokeColor=#000000;strokeWidth=2;fontColor=#000000;" parent="1" source="U5E92qtXcNm4YYFnFJic-34" target="U5E92qtXcNm4YYFnFJic-36" edge="1">
          <mxGeometry relative="1" as="geometry" />
        </mxCell>
        <mxCell id="U5E92qtXcNm4YYFnFJic-34" value="1-1.data preset" style="rounded=0;whiteSpace=wrap;html=1;fontColor=#000000;" parent="1" vertex="1">
          <mxGeometry x="-152" y="710" width="95" height="60" as="geometry" />
        </mxCell>
        <mxCell id="U5E92qtXcNm4YYFnFJic-35" value="" style="edgeStyle=orthogonalEdgeStyle;rounded=0;orthogonalLoop=1;jettySize=auto;html=1;strokeColor=#000000;strokeWidth=2;fontColor=#000000;" parent="1" source="U5E92qtXcNm4YYFnFJic-36" target="U5E92qtXcNm4YYFnFJic-38" edge="1">
          <mxGeometry relative="1" as="geometry" />
        </mxCell>
        <mxCell id="U5E92qtXcNm4YYFnFJic-36" value="1-2.message builder" style="rounded=0;whiteSpace=wrap;html=1;fontColor=#000000;" parent="1" vertex="1">
          <mxGeometry x="-37" y="710" width="95" height="60" as="geometry" />
        </mxCell>
        <mxCell id="U5E92qtXcNm4YYFnFJic-37" value="" style="edgeStyle=orthogonalEdgeStyle;rounded=0;orthogonalLoop=1;jettySize=auto;html=1;strokeColor=#000000;strokeWidth=2;fontColor=#000000;" parent="1" source="U5E92qtXcNm4YYFnFJic-38" target="U5E92qtXcNm4YYFnFJic-39" edge="1">
          <mxGeometry relative="1" as="geometry" />
        </mxCell>
        <mxCell id="U5E92qtXcNm4YYFnFJic-38" value="1-3.external &lt;br&gt;message builder" style="rounded=0;whiteSpace=wrap;html=1;fontColor=#000000;" parent="1" vertex="1">
          <mxGeometry x="83" y="710" width="95" height="60" as="geometry" />
        </mxCell>
        <mxCell id="U5E92qtXcNm4YYFnFJic-39" value="1-4.Validate" style="rounded=0;whiteSpace=wrap;html=1;fontColor=#000000;" parent="1" vertex="1">
          <mxGeometry x="203" y="710" width="95" height="60" as="geometry" />
        </mxCell>
        <mxCell id="U5E92qtXcNm4YYFnFJic-40" style="rounded=0;orthogonalLoop=1;jettySize=auto;html=1;entryX=0;entryY=0.5;entryDx=0;entryDy=0;strokeColor=#000000;strokeWidth=1;fontColor=#000000;" parent="1" source="U5E92qtXcNm4YYFnFJic-43" target="U5E92qtXcNm4YYFnFJic-63" edge="1">
          <mxGeometry relative="1" as="geometry" />
        </mxCell>
        <mxCell id="U5E92qtXcNm4YYFnFJic-41" style="rounded=0;orthogonalLoop=1;jettySize=auto;html=1;entryX=0;entryY=0.5;entryDx=0;entryDy=0;strokeColor=#000000;strokeWidth=1;fontColor=#000000;" parent="1" source="U5E92qtXcNm4YYFnFJic-43" target="U5E92qtXcNm4YYFnFJic-64" edge="1">
          <mxGeometry relative="1" as="geometry" />
        </mxCell>
        <mxCell id="U5E92qtXcNm4YYFnFJic-42" style="edgeStyle=none;rounded=0;orthogonalLoop=1;jettySize=auto;html=1;entryX=1;entryY=0.5;entryDx=0;entryDy=0;strokeColor=#000000;strokeWidth=1;fontColor=#000000;exitX=0;exitY=0.5;exitDx=0;exitDy=0;" parent="1" source="U5E92qtXcNm4YYFnFJic-43" target="U5E92qtXcNm4YYFnFJic-70" edge="1">
          <mxGeometry relative="1" as="geometry" />
        </mxCell>
        <mxCell id="U5E92qtXcNm4YYFnFJic-43" value="3.组装返回调用方的的报文" style="rounded=1;whiteSpace=wrap;html=1;align=left;verticalAlign=top;" parent="1" vertex="1">
          <mxGeometry x="-167" y="930" width="480" height="100" as="geometry" />
        </mxCell>
        <mxCell id="U5E92qtXcNm4YYFnFJic-44" value="" style="edgeStyle=orthogonalEdgeStyle;rounded=0;orthogonalLoop=1;jettySize=auto;html=1;strokeColor=#000000;strokeWidth=2;fontColor=#000000;" parent="1" source="U5E92qtXcNm4YYFnFJic-45" target="U5E92qtXcNm4YYFnFJic-47" edge="1">
          <mxGeometry relative="1" as="geometry" />
        </mxCell>
        <mxCell id="U5E92qtXcNm4YYFnFJic-45" value="3-1.data preset" style="rounded=0;whiteSpace=wrap;html=1;fontColor=#000000;" parent="1" vertex="1">
          <mxGeometry x="-152" y="960" width="95" height="60" as="geometry" />
        </mxCell>
        <mxCell id="U5E92qtXcNm4YYFnFJic-46" value="" style="edgeStyle=orthogonalEdgeStyle;rounded=0;orthogonalLoop=1;jettySize=auto;html=1;strokeColor=#000000;strokeWidth=2;fontColor=#000000;" parent="1" source="U5E92qtXcNm4YYFnFJic-47" target="U5E92qtXcNm4YYFnFJic-49" edge="1">
          <mxGeometry relative="1" as="geometry" />
        </mxCell>
        <mxCell id="U5E92qtXcNm4YYFnFJic-47" value="3-2.message builder" style="rounded=0;whiteSpace=wrap;html=1;fontColor=#000000;" parent="1" vertex="1">
          <mxGeometry x="-37" y="960" width="95" height="60" as="geometry" />
        </mxCell>
        <mxCell id="U5E92qtXcNm4YYFnFJic-48" value="" style="edgeStyle=orthogonalEdgeStyle;rounded=0;orthogonalLoop=1;jettySize=auto;html=1;strokeColor=#000000;strokeWidth=2;fontColor=#000000;" parent="1" source="U5E92qtXcNm4YYFnFJic-49" target="U5E92qtXcNm4YYFnFJic-50" edge="1">
          <mxGeometry relative="1" as="geometry" />
        </mxCell>
        <mxCell id="U5E92qtXcNm4YYFnFJic-49" value="3-3.external&lt;br style=&quot;border-color: var(--border-color);&quot;&gt;message builder" style="rounded=0;whiteSpace=wrap;html=1;fontColor=#000000;" parent="1" vertex="1">
          <mxGeometry x="83" y="960" width="95" height="60" as="geometry" />
        </mxCell>
        <mxCell id="U5E92qtXcNm4YYFnFJic-50" value="3-4.Validate" style="rounded=0;whiteSpace=wrap;html=1;fontColor=#000000;" parent="1" vertex="1">
          <mxGeometry x="203" y="960" width="95" height="60" as="geometry" />
        </mxCell>
        <mxCell id="U5E92qtXcNm4YYFnFJic-51" style="edgeStyle=orthogonalEdgeStyle;rounded=0;orthogonalLoop=1;jettySize=auto;html=1;entryX=0.5;entryY=0;entryDx=0;entryDy=0;strokeColor=#000000;strokeWidth=2;fontColor=#000000;" parent="1" source="U5E92qtXcNm4YYFnFJic-54" target="U5E92qtXcNm4YYFnFJic-43" edge="1">
          <mxGeometry relative="1" as="geometry" />
        </mxCell>
        <mxCell id="U5E92qtXcNm4YYFnFJic-52" style="rounded=0;orthogonalLoop=1;jettySize=auto;html=1;entryX=0;entryY=0.5;entryDx=0;entryDy=0;strokeColor=#000000;strokeWidth=1;fontColor=#000000;" parent="1" source="U5E92qtXcNm4YYFnFJic-54" target="U5E92qtXcNm4YYFnFJic-62" edge="1">
          <mxGeometry relative="1" as="geometry" />
        </mxCell>
        <mxCell id="U5E92qtXcNm4YYFnFJic-53" style="edgeStyle=none;rounded=0;orthogonalLoop=1;jettySize=auto;html=1;entryX=1;entryY=0.5;entryDx=0;entryDy=0;strokeColor=#000000;strokeWidth=1;fontColor=#000000;" parent="1" source="U5E92qtXcNm4YYFnFJic-54" target="U5E92qtXcNm4YYFnFJic-66" edge="1">
          <mxGeometry relative="1" as="geometry" />
        </mxCell>
        <mxCell id="U5E92qtXcNm4YYFnFJic-54" value="2.调用外部服务方" style="rounded=1;whiteSpace=wrap;html=1;align=left;verticalAlign=top;" parent="1" vertex="1">
          <mxGeometry x="-167" y="800" width="480" height="110" as="geometry" />
        </mxCell>
        <mxCell id="U5E92qtXcNm4YYFnFJic-56" value="common http client" style="rounded=0;whiteSpace=wrap;html=1;fontColor=#000000;align=left;verticalAlign=top;" parent="1" vertex="1">
          <mxGeometry x="-150.25" y="828" width="210" height="70" as="geometry" />
        </mxCell>
        <mxCell id="U5E92qtXcNm4YYFnFJic-57" value="common http&amp;nbsp;" style="rounded=0;whiteSpace=wrap;html=1;fontColor=#000000;" parent="1" vertex="1">
          <mxGeometry x="-138.75" y="860" width="81" height="28" as="geometry" />
        </mxCell>
        <mxCell id="U5E92qtXcNm4YYFnFJic-58" value="Customized Auth" style="rounded=0;whiteSpace=wrap;html=1;fontColor=#000000;" parent="1" vertex="1">
          <mxGeometry x="-45.25" y="860" width="97" height="28" as="geometry" />
        </mxCell>
        <mxCell id="U5E92qtXcNm4YYFnFJic-59" value="param(输入)" style="rounded=0;whiteSpace=wrap;html=1;fontColor=#000000;" parent="1" vertex="1">
          <mxGeometry x="369" y="710" width="130" height="40" as="geometry" />
        </mxCell>
        <mxCell id="U5E92qtXcNm4YYFnFJic-60" value="request tmp var" style="rounded=0;whiteSpace=wrap;html=1;fontColor=#000000;" parent="1" vertex="1">
          <mxGeometry x="369" y="760" width="130" height="40" as="geometry" />
        </mxCell>
        <mxCell id="U5E92qtXcNm4YYFnFJic-61" value="request" style="rounded=0;whiteSpace=wrap;html=1;fontColor=#000000;" parent="1" vertex="1">
          <mxGeometry x="369" y="810" width="130" height="40" as="geometry" />
        </mxCell>
        <mxCell id="U5E92qtXcNm4YYFnFJic-62" value="response" style="rounded=0;whiteSpace=wrap;html=1;fontColor=#000000;" parent="1" vertex="1">
          <mxGeometry x="369" y="866" width="130" height="40" as="geometry" />
        </mxCell>
        <mxCell id="U5E92qtXcNm4YYFnFJic-63" value="response tmp var" style="rounded=0;whiteSpace=wrap;html=1;fontColor=#000000;" parent="1" vertex="1">
          <mxGeometry x="369" y="918" width="130" height="40" as="geometry" />
        </mxCell>
        <mxCell id="U5E92qtXcNm4YYFnFJic-64" value="result(输出)" style="rounded=0;whiteSpace=wrap;html=1;fontColor=#000000;" parent="1" vertex="1">
          <mxGeometry x="369" y="970" width="130" height="40" as="geometry" />
        </mxCell>
        <mxCell id="U5E92qtXcNm4YYFnFJic-65" value="api_info" style="rounded=0;whiteSpace=wrap;html=1;fontColor=#000000;" parent="1" vertex="1">
          <mxGeometry x="-333" y="680" width="110" height="40" as="geometry" />
        </mxCell>
        <mxCell id="U5E92qtXcNm4YYFnFJic-66" value="api client config" style="rounded=0;whiteSpace=wrap;html=1;fontColor=#000000;" parent="1" vertex="1">
          <mxGeometry x="-333" y="858" width="110" height="40" as="geometry" />
        </mxCell>
        <mxCell id="U5E92qtXcNm4YYFnFJic-67" value="request_builder" style="rounded=0;whiteSpace=wrap;html=1;fontColor=#000000;verticalAlign=top;" parent="1" vertex="1">
          <mxGeometry x="-333" y="740" width="110" height="98" as="geometry" />
        </mxCell>
        <mxCell id="U5E92qtXcNm4YYFnFJic-68" value="tmp var" style="rounded=0;whiteSpace=wrap;html=1;fontColor=#000000;" parent="1" vertex="1">
          <mxGeometry x="-314" y="766" width="75" height="30" as="geometry" />
        </mxCell>
        <mxCell id="U5E92qtXcNm4YYFnFJic-69" value="builder" style="rounded=0;whiteSpace=wrap;html=1;fontColor=#000000;" parent="1" vertex="1">
          <mxGeometry x="-314" y="802" width="75" height="30" as="geometry" />
        </mxCell>
        <mxCell id="U5E92qtXcNm4YYFnFJic-70" value="response_builder" style="rounded=0;whiteSpace=wrap;html=1;fontColor=#000000;verticalAlign=top;" parent="1" vertex="1">
          <mxGeometry x="-333" y="918" width="110" height="98" as="geometry" />
        </mxCell>
        <mxCell id="U5E92qtXcNm4YYFnFJic-71" value="tmp var" style="rounded=0;whiteSpace=wrap;html=1;fontColor=#000000;" parent="1" vertex="1">
          <mxGeometry x="-314" y="944" width="75" height="30" as="geometry" />
        </mxCell>
        <mxCell id="U5E92qtXcNm4YYFnFJic-72" value="builder" style="rounded=0;whiteSpace=wrap;html=1;fontColor=#000000;" parent="1" vertex="1">
          <mxGeometry x="-315" y="980" width="75" height="30" as="geometry" />
        </mxCell>
        <mxCell id="U5E92qtXcNm4YYFnFJic-73" value="api-core" style="rounded=0;whiteSpace=wrap;html=1;align=left;verticalAlign=top;fillColor=#f5f5f5;fontColor=#333333;strokeColor=#666666;" parent="1" vertex="1">
          <mxGeometry x="-347" y="1070" width="864" height="130" as="geometry" />
        </mxCell>
        <mxCell id="U5E92qtXcNm4YYFnFJic-74" value="api配置解析器" style="rounded=0;whiteSpace=wrap;html=1;fontColor=#000000;" parent="1" vertex="1">
          <mxGeometry x="-315" y="1100" width="90" height="40" as="geometry" />
        </mxCell>
        <mxCell id="U5E92qtXcNm4YYFnFJic-75" value="字段类型支持" style="rounded=0;whiteSpace=wrap;html=1;fontColor=#000000;" parent="1" vertex="1">
          <mxGeometry x="-203" y="1100" width="90" height="40" as="geometry" />
        </mxCell>
        <mxCell id="U5E92qtXcNm4YYFnFJic-76" value="赋值表达式解析器" style="rounded=0;whiteSpace=wrap;html=1;fontColor=#000000;" parent="1" vertex="1">
          <mxGeometry x="-80" y="1100" width="104.5" height="40" as="geometry" />
        </mxCell>
        <mxCell id="U5E92qtXcNm4YYFnFJic-79" value="语法执行器" style="rounded=0;whiteSpace=wrap;html=1;fontColor=#000000;" parent="1" vertex="1">
          <mxGeometry x="51.75" y="1100" width="80" height="40" as="geometry" />
        </mxCell>
        <mxCell id="U5E92qtXcNm4YYFnFJic-80" value="通用加工函数" style="rounded=0;whiteSpace=wrap;html=1;fontColor=#000000;" parent="1" vertex="1">
          <mxGeometry x="160" y="1100" width="80" height="40" as="geometry" />
        </mxCell>
        <mxCell id="U5E92qtXcNm4YYFnFJic-81" value="自定义函数注册" style="rounded=0;whiteSpace=wrap;html=1;fontColor=#000000;" parent="1" vertex="1">
          <mxGeometry x="270" y="1100" width="92" height="40" as="geometry" />
        </mxCell>
        <mxCell id="U5E92qtXcNm4YYFnFJic-82" value="监控上报" style="rounded=0;whiteSpace=wrap;html=1;fontColor=#000000;" parent="1" vertex="1">
          <mxGeometry x="386" y="1100" width="92" height="40" as="geometry" />
        </mxCell>
        <mxCell id="U5E92qtXcNm4YYFnFJic-83" value="………" style="text;html=1;align=center;verticalAlign=middle;resizable=0;points=[];autosize=1;strokeColor=none;fillColor=none;" parent="1" vertex="1">
          <mxGeometry x="-97" y="1155" width="60" height="30" as="geometry" />
        </mxCell>
        <mxCell id="UB5xsg1ylsfpZKs7-BkP-1" value="&amp;nbsp;cloud api client" style="rounded=0;whiteSpace=wrap;html=1;fontColor=#000000;align=center;verticalAlign=middle;" parent="1" vertex="1">
          <mxGeometry x="82" y="828" width="90" height="70" as="geometry" />
        </mxCell>
        <mxCell id="Svhuz_fR3EjRcwzj4RNc-1" value="……" style="rounded=0;whiteSpace=wrap;html=1;fontColor=#000000;align=center;verticalAlign=middle;" vertex="1" parent="1">
          <mxGeometry x="193" y="828" width="97" height="70" as="geometry" />
        </mxCell>
        <mxCell id="Svhuz_fR3EjRcwzj4RNc-2" value="缓存机制" style="rounded=0;whiteSpace=wrap;html=1;fontColor=#000000;" vertex="1" parent="1">
          <mxGeometry x="-316" y="1150" width="92" height="40" as="geometry" />
        </mxCell>
        <mxCell id="Svhuz_fR3EjRcwzj4RNc-3" value="流量控制" style="rounded=0;whiteSpace=wrap;html=1;fontColor=#000000;" vertex="1" parent="1">
          <mxGeometry x="-203" y="1150" width="92" height="40" as="geometry" />
        </mxCell>
      </root>
    </mxGraphModel>
  </diagram>
  <diagram id="qwUtujjzx-sqBy1eLKBB" name="api编排">
    <mxGraphModel dx="2069" dy="748" grid="1" gridSize="10" guides="1" tooltips="1" connect="1" arrows="1" fold="1" page="1" pageScale="1" pageWidth="827" pageHeight="1169" math="0" shadow="0">
      <root>
        <mxCell id="0" />
        <mxCell id="1" parent="0" />
        <mxCell id="awqsUxiTVQGRlO4rS3KM-1" value="使用场景" style="rounded=0;whiteSpace=wrap;html=1;dashed=1;fillColor=none;strokeColor=#7EA6E0;verticalAlign=top;" vertex="1" parent="1">
          <mxGeometry x="-150" y="130" width="160" height="380" as="geometry" />
        </mxCell>
        <mxCell id="awqsUxiTVQGRlO4rS3KM-2" value="variable binding api" style="rounded=0;whiteSpace=wrap;html=1;verticalAlign=top;" vertex="1" parent="1">
          <mxGeometry x="124" y="180" width="520" height="70" as="geometry" />
        </mxCell>
        <mxCell id="awqsUxiTVQGRlO4rS3KM-3" value="fast flow（简化版的流程编排）" style="rounded=0;whiteSpace=wrap;html=1;verticalAlign=top;" vertex="1" parent="1">
          <mxGeometry x="124" y="490" width="520" height="260" as="geometry" />
        </mxCell>
        <mxCell id="awqsUxiTVQGRlO4rS3KM-4" value="event bus" style="rounded=0;whiteSpace=wrap;html=1;verticalAlign=top;" vertex="1" parent="1">
          <mxGeometry x="129" y="800" width="510" height="90" as="geometry" />
        </mxCell>
        <mxCell id="awqsUxiTVQGRlO4rS3KM-5" value="subscriber regiester" style="rounded=1;whiteSpace=wrap;html=1;" vertex="1" parent="1">
          <mxGeometry x="169" y="830" width="100" height="40" as="geometry" />
        </mxCell>
        <mxCell id="awqsUxiTVQGRlO4rS3KM-6" value="事件调度" style="rounded=0;orthogonalLoop=1;jettySize=auto;html=1;exitX=0.5;exitY=0;exitDx=0;exitDy=0;entryX=0.75;entryY=1;entryDx=0;entryDy=0;" edge="1" parent="1" source="awqsUxiTVQGRlO4rS3KM-7" target="awqsUxiTVQGRlO4rS3KM-16">
          <mxGeometry relative="1" as="geometry" />
        </mxCell>
        <mxCell id="awqsUxiTVQGRlO4rS3KM-7" value="event&amp;nbsp;&lt;br&gt;dispatcher" style="rounded=1;whiteSpace=wrap;html=1;" vertex="1" parent="1">
          <mxGeometry x="329.5" y="830" width="100" height="40" as="geometry" />
        </mxCell>
        <mxCell id="awqsUxiTVQGRlO4rS3KM-8" value="event post" style="rounded=1;whiteSpace=wrap;html=1;" vertex="1" parent="1">
          <mxGeometry x="501.5" y="830" width="100" height="40" as="geometry" />
        </mxCell>
        <mxCell id="awqsUxiTVQGRlO4rS3KM-9" value="执行中发布事件" style="rounded=0;orthogonalLoop=1;jettySize=auto;html=1;exitX=0.5;exitY=1;exitDx=0;exitDy=0;entryX=0.5;entryY=0;entryDx=0;entryDy=0;" edge="1" parent="1" source="awqsUxiTVQGRlO4rS3KM-10" target="awqsUxiTVQGRlO4rS3KM-8">
          <mxGeometry relative="1" as="geometry">
            <mxPoint x="552" y="810" as="targetPoint" />
          </mxGeometry>
        </mxCell>
        <mxCell id="awqsUxiTVQGRlO4rS3KM-10" value="flow execute" style="rounded=0;whiteSpace=wrap;html=1;verticalAlign=top;" vertex="1" parent="1">
          <mxGeometry x="484" y="520" width="150" height="220" as="geometry" />
        </mxCell>
        <mxCell id="awqsUxiTVQGRlO4rS3KM-11" value="parallel gateway&amp;nbsp;" style="rounded=1;whiteSpace=wrap;html=1;" vertex="1" parent="1">
          <mxGeometry x="496.5" y="579.5" width="125" height="22" as="geometry" />
        </mxCell>
        <mxCell id="awqsUxiTVQGRlO4rS3KM-12" value="exclusive gateway&amp;nbsp;" style="rounded=1;whiteSpace=wrap;html=1;" vertex="1" parent="1">
          <mxGeometry x="496.5" y="611.5" width="125" height="21" as="geometry" />
        </mxCell>
        <mxCell id="awqsUxiTVQGRlO4rS3KM-13" value="flow config" style="rounded=1;whiteSpace=wrap;html=1;" vertex="1" parent="1">
          <mxGeometry x="496.5" y="548" width="125" height="22" as="geometry" />
        </mxCell>
        <mxCell id="awqsUxiTVQGRlO4rS3KM-14" style="edgeStyle=orthogonalEdgeStyle;rounded=0;orthogonalLoop=1;jettySize=auto;html=1;exitX=1;exitY=0.5;exitDx=0;exitDy=0;entryX=0;entryY=0.5;entryDx=0;entryDy=0;" edge="1" parent="1" source="awqsUxiTVQGRlO4rS3KM-16" target="awqsUxiTVQGRlO4rS3KM-22">
          <mxGeometry relative="1" as="geometry" />
        </mxCell>
        <mxCell id="awqsUxiTVQGRlO4rS3KM-15" value="订阅" style="rounded=0;orthogonalLoop=1;jettySize=auto;html=1;exitX=0.5;exitY=1;exitDx=0;exitDy=0;entryX=0.5;entryY=0;entryDx=0;entryDy=0;" edge="1" parent="1" source="awqsUxiTVQGRlO4rS3KM-16" target="awqsUxiTVQGRlO4rS3KM-5">
          <mxGeometry relative="1" as="geometry" />
        </mxCell>
        <mxCell id="awqsUxiTVQGRlO4rS3KM-16" value="flow event subscriber" style="rounded=0;whiteSpace=wrap;html=1;verticalAlign=top;" vertex="1" parent="1">
          <mxGeometry x="139" y="520" width="150" height="220" as="geometry" />
        </mxCell>
        <mxCell id="awqsUxiTVQGRlO4rS3KM-17" value="startFlow event" style="rounded=1;whiteSpace=wrap;html=1;" vertex="1" parent="1">
          <mxGeometry x="151.5" y="550" width="125" height="35" as="geometry" />
        </mxCell>
        <mxCell id="awqsUxiTVQGRlO4rS3KM-18" value="endFlow event" style="rounded=1;whiteSpace=wrap;html=1;" vertex="1" parent="1">
          <mxGeometry x="151.5" y="597.5" width="125" height="35" as="geometry" />
        </mxCell>
        <mxCell id="awqsUxiTVQGRlO4rS3KM-19" value="nextNode event" style="rounded=1;whiteSpace=wrap;html=1;" vertex="1" parent="1">
          <mxGeometry x="151.5" y="645" width="125" height="35" as="geometry" />
        </mxCell>
        <mxCell id="awqsUxiTVQGRlO4rS3KM-20" value="nodeComplete event" style="rounded=1;whiteSpace=wrap;html=1;" vertex="1" parent="1">
          <mxGeometry x="151.5" y="692" width="125" height="35" as="geometry" />
        </mxCell>
        <mxCell id="awqsUxiTVQGRlO4rS3KM-21" style="edgeStyle=orthogonalEdgeStyle;rounded=0;orthogonalLoop=1;jettySize=auto;html=1;exitX=1;exitY=0.5;exitDx=0;exitDy=0;entryX=0;entryY=0.5;entryDx=0;entryDy=0;" edge="1" parent="1" source="awqsUxiTVQGRlO4rS3KM-22" target="awqsUxiTVQGRlO4rS3KM-10">
          <mxGeometry relative="1" as="geometry" />
        </mxCell>
        <mxCell id="awqsUxiTVQGRlO4rS3KM-22" value="flow instance" style="rounded=0;whiteSpace=wrap;html=1;verticalAlign=top;" vertex="1" parent="1">
          <mxGeometry x="312" y="520" width="150" height="220" as="geometry" />
        </mxCell>
        <mxCell id="awqsUxiTVQGRlO4rS3KM-23" value="startFlow handle" style="rounded=1;whiteSpace=wrap;html=1;" vertex="1" parent="1">
          <mxGeometry x="324.5" y="550" width="125" height="35" as="geometry" />
        </mxCell>
        <mxCell id="awqsUxiTVQGRlO4rS3KM-24" value="eventFlow handle" style="rounded=1;whiteSpace=wrap;html=1;" vertex="1" parent="1">
          <mxGeometry x="324.5" y="597.5" width="125" height="35" as="geometry" />
        </mxCell>
        <mxCell id="awqsUxiTVQGRlO4rS3KM-25" value="nextNode handle" style="rounded=1;whiteSpace=wrap;html=1;" vertex="1" parent="1">
          <mxGeometry x="324.5" y="645" width="125" height="35" as="geometry" />
        </mxCell>
        <mxCell id="awqsUxiTVQGRlO4rS3KM-26" value="nodeComplete handle" style="rounded=1;whiteSpace=wrap;html=1;" vertex="1" parent="1">
          <mxGeometry x="324.5" y="692" width="125" height="35" as="geometry" />
        </mxCell>
        <mxCell id="awqsUxiTVQGRlO4rS3KM-27" value="node processors" style="rounded=0;whiteSpace=wrap;html=1;verticalAlign=top;" vertex="1" parent="1">
          <mxGeometry x="496.5" y="642" width="127.5" height="90" as="geometry" />
        </mxCell>
        <mxCell id="awqsUxiTVQGRlO4rS3KM-28" value="……" style="rounded=1;whiteSpace=wrap;html=1;" vertex="1" parent="1">
          <mxGeometry x="510.25" y="680" width="100" height="30" as="geometry" />
        </mxCell>
        <mxCell id="awqsUxiTVQGRlO4rS3KM-29" value="api编排" style="rounded=0;whiteSpace=wrap;html=1;verticalAlign=top;" vertex="1" parent="1">
          <mxGeometry x="124" y="280" width="520" height="180" as="geometry" />
        </mxCell>
        <mxCell id="awqsUxiTVQGRlO4rS3KM-30" value="实现节点" style="edgeStyle=orthogonalEdgeStyle;rounded=0;orthogonalLoop=1;jettySize=auto;html=1;entryX=1;entryY=0.5;entryDx=0;entryDy=0;exitX=1;exitY=0.5;exitDx=0;exitDy=0;" edge="1" parent="1" source="awqsUxiTVQGRlO4rS3KM-31" target="awqsUxiTVQGRlO4rS3KM-27">
          <mxGeometry relative="1" as="geometry">
            <Array as="points">
              <mxPoint x="704" y="405" />
              <mxPoint x="704" y="687" />
            </Array>
          </mxGeometry>
        </mxCell>
        <mxCell id="awqsUxiTVQGRlO4rS3KM-31" value="node processors&lt;br&gt;" style="rounded=0;whiteSpace=wrap;html=1;verticalAlign=top;" vertex="1" parent="1">
          <mxGeometry x="501.5" y="360" width="127.5" height="90" as="geometry" />
        </mxCell>
        <mxCell id="awqsUxiTVQGRlO4rS3KM-32" value="request" style="rounded=0;orthogonalLoop=1;jettySize=auto;html=1;entryX=0;entryY=0.5;entryDx=0;entryDy=0;exitX=1;exitY=0.5;exitDx=0;exitDy=0;" edge="1" parent="1" source="awqsUxiTVQGRlO4rS3KM-33" target="awqsUxiTVQGRlO4rS3KM-49">
          <mxGeometry relative="1" as="geometry" />
        </mxCell>
        <mxCell id="awqsUxiTVQGRlO4rS3KM-33" value="api request node" style="rounded=1;whiteSpace=wrap;html=1;" vertex="1" parent="1">
          <mxGeometry x="515.25" y="390" width="100" height="20" as="geometry" />
        </mxCell>
        <mxCell id="awqsUxiTVQGRlO4rS3KM-34" value="api combine node" style="rounded=1;whiteSpace=wrap;html=1;" vertex="1" parent="1">
          <mxGeometry x="515.25" y="420" width="100" height="20" as="geometry" />
        </mxCell>
        <mxCell id="awqsUxiTVQGRlO4rS3KM-35" value="" style="group" connectable="0" vertex="1" parent="1">
          <mxGeometry x="391" y="360" width="93" height="90" as="geometry" />
        </mxCell>
        <mxCell id="awqsUxiTVQGRlO4rS3KM-36" value="api flow config" style="rounded=0;whiteSpace=wrap;html=1;verticalAlign=top;" vertex="1" parent="awqsUxiTVQGRlO4rS3KM-35">
          <mxGeometry width="93" height="90" as="geometry" />
        </mxCell>
        <mxCell id="awqsUxiTVQGRlO4rS3KM-37" value="flow loader" style="rounded=1;whiteSpace=wrap;html=1;" vertex="1" parent="awqsUxiTVQGRlO4rS3KM-35">
          <mxGeometry x="10.02941176470588" y="26" width="72.94117647058823" height="20" as="geometry" />
        </mxCell>
        <mxCell id="awqsUxiTVQGRlO4rS3KM-38" value="flow getter" style="rounded=1;whiteSpace=wrap;html=1;" vertex="1" parent="awqsUxiTVQGRlO4rS3KM-35">
          <mxGeometry x="10.02941176470588" y="60" width="72.94117647058823" height="20" as="geometry" />
        </mxCell>
        <mxCell id="awqsUxiTVQGRlO4rS3KM-39" value="" style="group" connectable="0" vertex="1" parent="1">
          <mxGeometry x="264" y="360" width="102.5" height="90" as="geometry" />
        </mxCell>
        <mxCell id="awqsUxiTVQGRlO4rS3KM-40" value="api result cache" style="rounded=0;whiteSpace=wrap;html=1;verticalAlign=top;" vertex="1" parent="awqsUxiTVQGRlO4rS3KM-39">
          <mxGeometry width="102.5" height="90" as="geometry" />
        </mxCell>
        <mxCell id="awqsUxiTVQGRlO4rS3KM-41" value="single api" style="rounded=1;whiteSpace=wrap;html=1;" vertex="1" parent="awqsUxiTVQGRlO4rS3KM-39">
          <mxGeometry x="11.053921568627452" y="26" width="80.3921568627451" height="20" as="geometry" />
        </mxCell>
        <mxCell id="awqsUxiTVQGRlO4rS3KM-42" value="combine api" style="rounded=1;whiteSpace=wrap;html=1;" vertex="1" parent="awqsUxiTVQGRlO4rS3KM-39">
          <mxGeometry x="11.053921568627452" y="60" width="80.3921568627451" height="20" as="geometry" />
        </mxCell>
        <mxCell id="awqsUxiTVQGRlO4rS3KM-43" value="run flow" style="rounded=0;orthogonalLoop=1;jettySize=auto;html=1;entryX=0.5;entryY=0;entryDx=0;entryDy=0;exitX=0.5;exitY=1;exitDx=0;exitDy=0;" edge="1" parent="1" source="awqsUxiTVQGRlO4rS3KM-44" target="awqsUxiTVQGRlO4rS3KM-3">
          <mxGeometry relative="1" as="geometry" />
        </mxCell>
        <mxCell id="awqsUxiTVQGRlO4rS3KM-44" value="api flow runner" style="rounded=0;whiteSpace=wrap;html=1;verticalAlign=middle;" vertex="1" parent="1">
          <mxGeometry x="139" y="360" width="102.5" height="90" as="geometry" />
        </mxCell>
        <mxCell id="awqsUxiTVQGRlO4rS3KM-45" value="api arrange interface" style="rounded=0;whiteSpace=wrap;html=1;" vertex="1" parent="1">
          <mxGeometry x="140" y="314" width="485" height="30" as="geometry" />
        </mxCell>
        <mxCell id="awqsUxiTVQGRlO4rS3KM-46" style="edgeStyle=orthogonalEdgeStyle;rounded=0;orthogonalLoop=1;jettySize=auto;html=1;entryX=0.5;entryY=0;entryDx=0;entryDy=0;exitX=0.5;exitY=1;exitDx=0;exitDy=0;" edge="1" parent="1" source="awqsUxiTVQGRlO4rS3KM-48" target="awqsUxiTVQGRlO4rS3KM-29">
          <mxGeometry relative="1" as="geometry" />
        </mxCell>
        <mxCell id="awqsUxiTVQGRlO4rS3KM-47" value="binding api config" style="rounded=1;whiteSpace=wrap;html=1;" vertex="1" parent="1">
          <mxGeometry x="189" y="210" width="100" height="30" as="geometry" />
        </mxCell>
        <mxCell id="awqsUxiTVQGRlO4rS3KM-48" value="getValueByApi" style="rounded=1;whiteSpace=wrap;html=1;" vertex="1" parent="1">
          <mxGeometry x="334" y="210" width="100" height="30" as="geometry" />
        </mxCell>
        <mxCell id="awqsUxiTVQGRlO4rS3KM-49" value="api-proxy/cs-integration" style="rounded=0;whiteSpace=wrap;html=1;" vertex="1" parent="1">
          <mxGeometry x="790" y="300" width="140" height="60" as="geometry" />
        </mxCell>
        <mxCell id="awqsUxiTVQGRlO4rS3KM-50" style="rounded=0;orthogonalLoop=1;jettySize=auto;html=1;entryX=0;entryY=0.5;entryDx=0;entryDy=0;" edge="1" parent="1" source="awqsUxiTVQGRlO4rS3KM-51" target="awqsUxiTVQGRlO4rS3KM-29">
          <mxGeometry relative="1" as="geometry" />
        </mxCell>
        <mxCell id="awqsUxiTVQGRlO4rS3KM-51" value="tfe order大接口拆分" style="rounded=0;whiteSpace=wrap;html=1;" vertex="1" parent="1">
          <mxGeometry x="-130" y="340" width="120" height="60" as="geometry" />
        </mxCell>
        <mxCell id="awqsUxiTVQGRlO4rS3KM-52" style="rounded=0;orthogonalLoop=1;jettySize=auto;html=1;entryX=0.002;entryY=0.8;entryDx=0;entryDy=0;entryPerimeter=0;" edge="1" parent="1" source="awqsUxiTVQGRlO4rS3KM-53" target="awqsUxiTVQGRlO4rS3KM-29">
          <mxGeometry relative="1" as="geometry" />
        </mxCell>
        <mxCell id="awqsUxiTVQGRlO4rS3KM-53" value="dm init session" style="rounded=0;whiteSpace=wrap;html=1;" vertex="1" parent="1">
          <mxGeometry x="-130" y="430" width="120" height="60" as="geometry" />
        </mxCell>
        <mxCell id="awqsUxiTVQGRlO4rS3KM-54" style="rounded=0;orthogonalLoop=1;jettySize=auto;html=1;entryX=0;entryY=0.25;entryDx=0;entryDy=0;exitX=1;exitY=0.5;exitDx=0;exitDy=0;" edge="1" parent="1" source="awqsUxiTVQGRlO4rS3KM-55" target="awqsUxiTVQGRlO4rS3KM-29">
          <mxGeometry relative="1" as="geometry" />
        </mxCell>
        <mxCell id="awqsUxiTVQGRlO4rS3KM-55" value="api debug" style="rounded=0;whiteSpace=wrap;html=1;" vertex="1" parent="1">
          <mxGeometry x="-130" y="254" width="120" height="60" as="geometry" />
        </mxCell>
        <mxCell id="awqsUxiTVQGRlO4rS3KM-56" style="rounded=0;orthogonalLoop=1;jettySize=auto;html=1;entryX=0;entryY=0.5;entryDx=0;entryDy=0;" edge="1" parent="1" source="awqsUxiTVQGRlO4rS3KM-57" target="awqsUxiTVQGRlO4rS3KM-2">
          <mxGeometry relative="1" as="geometry" />
        </mxCell>
        <mxCell id="awqsUxiTVQGRlO4rS3KM-57" value="变量管理" style="rounded=0;whiteSpace=wrap;html=1;" vertex="1" parent="1">
          <mxGeometry x="-130" y="170" width="120" height="60" as="geometry" />
        </mxCell>
      </root>
    </mxGraphModel>
  </diagram>
  <diagram id="ejaGOEUvVIRuSY_uUTuv" name="api manager">
    <mxGraphModel dx="1242" dy="748" grid="1" gridSize="10" guides="1" tooltips="1" connect="1" arrows="1" fold="1" page="1" pageScale="1" pageWidth="827" pageHeight="1169" math="0" shadow="0">
      <root>
        <mxCell id="0" />
        <mxCell id="1" parent="0" />
        <mxCell id="dccRftJVkBhWSeohc8ir-1" value="&lt;b&gt;&lt;font style=&quot;font-size: 15px;&quot;&gt;&amp;nbsp; api-manager&lt;/font&gt;&lt;/b&gt;" style="rounded=0;whiteSpace=wrap;html=1;align=left;verticalAlign=top;" parent="1" vertex="1">
          <mxGeometry x="140" y="240" width="540" height="210" as="geometry" />
        </mxCell>
        <mxCell id="dccRftJVkBhWSeohc8ir-2" value="api-call-sdk" style="rounded=0;whiteSpace=wrap;html=1;fontStyle=1;verticalAlign=top;align=left;fontSize=15;" parent="1" vertex="1">
          <mxGeometry x="140" y="488" width="540" height="213" as="geometry" />
        </mxCell>
        <mxCell id="dccRftJVkBhWSeohc8ir-4" value="interface" style="rounded=0;whiteSpace=wrap;html=1;verticalAlign=top;align=left;" parent="1" vertex="1">
          <mxGeometry x="170" y="518" width="480" height="70" as="geometry" />
        </mxCell>
        <mxCell id="dccRftJVkBhWSeohc8ir-5" value="AddBuilder" style="rounded=0;whiteSpace=wrap;html=1;" parent="1" vertex="1">
          <mxGeometry x="310" y="541" width="89" height="40" as="geometry" />
        </mxCell>
        <mxCell id="iFSi1h7vB-s2J6jv3RdQ-27" value="5.1" style="rounded=0;orthogonalLoop=1;jettySize=auto;html=1;entryX=0.5;entryY=0;entryDx=0;entryDy=0;" parent="1" source="dccRftJVkBhWSeohc8ir-6" target="iFSi1h7vB-s2J6jv3RdQ-4" edge="1">
          <mxGeometry relative="1" as="geometry" />
        </mxCell>
        <mxCell id="dccRftJVkBhWSeohc8ir-6" value="Call" style="rounded=0;whiteSpace=wrap;html=1;" parent="1" vertex="1">
          <mxGeometry x="530" y="541" width="88" height="40" as="geometry" />
        </mxCell>
        <mxCell id="iFSi1h7vB-s2J6jv3RdQ-29" value="4.2" style="edgeStyle=orthogonalEdgeStyle;rounded=0;orthogonalLoop=1;jettySize=auto;html=1;entryX=0.5;entryY=0;entryDx=0;entryDy=0;" parent="1" source="dccRftJVkBhWSeohc8ir-8" target="iFSi1h7vB-s2J6jv3RdQ-3" edge="1">
          <mxGeometry relative="1" as="geometry" />
        </mxCell>
        <mxCell id="dccRftJVkBhWSeohc8ir-8" value="NewCaller" style="rounded=0;whiteSpace=wrap;html=1;" parent="1" vertex="1">
          <mxGeometry x="208" y="541" width="82" height="40" as="geometry" />
        </mxCell>
        <mxCell id="iFSi1h7vB-s2J6jv3RdQ-28" value="4.5" style="rounded=0;orthogonalLoop=1;jettySize=auto;html=1;entryX=0.5;entryY=0;entryDx=0;entryDy=0;" parent="1" source="iFSi1h7vB-s2J6jv3RdQ-1" target="iFSi1h7vB-s2J6jv3RdQ-2" edge="1">
          <mxGeometry relative="1" as="geometry" />
        </mxCell>
        <mxCell id="iFSi1h7vB-s2J6jv3RdQ-1" value="SetConfig" style="rounded=0;whiteSpace=wrap;html=1;" parent="1" vertex="1">
          <mxGeometry x="420" y="541" width="89" height="40" as="geometry" />
        </mxCell>
        <mxCell id="iFSi1h7vB-s2J6jv3RdQ-2" value="api config" style="rounded=0;whiteSpace=wrap;html=1;" parent="1" vertex="1">
          <mxGeometry x="359" y="621" width="100" height="60" as="geometry" />
        </mxCell>
        <mxCell id="iFSi1h7vB-s2J6jv3RdQ-3" value="data context" style="rounded=0;whiteSpace=wrap;html=1;" parent="1" vertex="1">
          <mxGeometry x="199" y="621" width="100" height="60" as="geometry" />
        </mxCell>
        <mxCell id="iFSi1h7vB-s2J6jv3RdQ-4" value="api flow" style="rounded=0;whiteSpace=wrap;html=1;" parent="1" vertex="1">
          <mxGeometry x="524" y="621" width="100" height="60" as="geometry" />
        </mxCell>
        <mxCell id="iFSi1h7vB-s2J6jv3RdQ-5" value="interface" style="rounded=0;whiteSpace=wrap;html=1;verticalAlign=top;align=left;" parent="1" vertex="1">
          <mxGeometry x="168" y="289" width="492" height="80" as="geometry" />
        </mxCell>
        <mxCell id="iFSi1h7vB-s2J6jv3RdQ-18" value="3.1" style="rounded=0;orthogonalLoop=1;jettySize=auto;html=1;exitX=0.5;exitY=1;exitDx=0;exitDy=0;entryX=0.5;entryY=0;entryDx=0;entryDy=0;" parent="1" source="iFSi1h7vB-s2J6jv3RdQ-6" target="iFSi1h7vB-s2J6jv3RdQ-10" edge="1">
          <mxGeometry relative="1" as="geometry" />
        </mxCell>
        <mxCell id="iFSi1h7vB-s2J6jv3RdQ-6" value="BindApiConfigStorage" style="rounded=0;whiteSpace=wrap;html=1;" parent="1" vertex="1">
          <mxGeometry x="396" y="319" width="140" height="40" as="geometry" />
        </mxCell>
        <mxCell id="iFSi1h7vB-s2J6jv3RdQ-23" value="4.1" style="rounded=0;orthogonalLoop=1;jettySize=auto;html=1;entryX=1;entryY=0;entryDx=0;entryDy=0;" parent="1" source="iFSi1h7vB-s2J6jv3RdQ-7" target="dccRftJVkBhWSeohc8ir-8" edge="1">
          <mxGeometry relative="1" as="geometry">
            <Array as="points" />
          </mxGeometry>
        </mxCell>
        <mxCell id="iFSi1h7vB-s2J6jv3RdQ-24" value="4.3" style="rounded=0;orthogonalLoop=1;jettySize=auto;html=1;exitX=0.5;exitY=1;exitDx=0;exitDy=0;entryX=0.5;entryY=0;entryDx=0;entryDy=0;" parent="1" source="iFSi1h7vB-s2J6jv3RdQ-7" target="dccRftJVkBhWSeohc8ir-5" edge="1">
          <mxGeometry relative="1" as="geometry" />
        </mxCell>
        <mxCell id="iFSi1h7vB-s2J6jv3RdQ-25" value="4.4" style="rounded=0;orthogonalLoop=1;jettySize=auto;html=1;exitX=0.75;exitY=1;exitDx=0;exitDy=0;" parent="1" source="iFSi1h7vB-s2J6jv3RdQ-7" target="iFSi1h7vB-s2J6jv3RdQ-1" edge="1">
          <mxGeometry relative="1" as="geometry" />
        </mxCell>
        <mxCell id="iFSi1h7vB-s2J6jv3RdQ-7" value="GetApiCaller" style="rounded=0;whiteSpace=wrap;html=1;" parent="1" vertex="1">
          <mxGeometry x="552" y="319" width="94" height="40" as="geometry" />
        </mxCell>
        <mxCell id="iFSi1h7vB-s2J6jv3RdQ-17" value="2.1" style="rounded=0;orthogonalLoop=1;jettySize=auto;html=1;entryX=0.5;entryY=0;entryDx=0;entryDy=0;" parent="1" source="iFSi1h7vB-s2J6jv3RdQ-8" target="iFSi1h7vB-s2J6jv3RdQ-9" edge="1">
          <mxGeometry relative="1" as="geometry" />
        </mxCell>
        <mxCell id="iFSi1h7vB-s2J6jv3RdQ-8" value="RegisterApi" style="rounded=0;whiteSpace=wrap;html=1;" parent="1" vertex="1">
          <mxGeometry x="290" y="319" width="82" height="40" as="geometry" />
        </mxCell>
        <mxCell id="iFSi1h7vB-s2J6jv3RdQ-9" value="apiConfigs" style="rounded=0;whiteSpace=wrap;html=1;" parent="1" vertex="1">
          <mxGeometry x="168" y="397" width="82" height="40" as="geometry" />
        </mxCell>
        <mxCell id="iFSi1h7vB-s2J6jv3RdQ-14" value="3.2" style="edgeStyle=orthogonalEdgeStyle;rounded=0;orthogonalLoop=1;jettySize=auto;html=1;entryX=1;entryY=0.5;entryDx=0;entryDy=0;" parent="1" source="iFSi1h7vB-s2J6jv3RdQ-10" target="iFSi1h7vB-s2J6jv3RdQ-9" edge="1">
          <mxGeometry relative="1" as="geometry" />
        </mxCell>
        <mxCell id="iFSi1h7vB-s2J6jv3RdQ-10" value="apiConfigLoader" style="rounded=0;whiteSpace=wrap;html=1;" parent="1" vertex="1">
          <mxGeometry x="290" y="397" width="122" height="40" as="geometry" />
        </mxCell>
        <mxCell id="iFSi1h7vB-s2J6jv3RdQ-19" value="①" style="rounded=0;orthogonalLoop=1;jettySize=auto;html=1;exitX=0.25;exitY=1;exitDx=0;exitDy=0;entryX=0.5;entryY=0;entryDx=0;entryDy=0;" parent="1" source="iFSi1h7vB-s2J6jv3RdQ-15" target="iFSi1h7vB-s2J6jv3RdQ-16" edge="1">
          <mxGeometry relative="1" as="geometry" />
        </mxCell>
        <mxCell id="iFSi1h7vB-s2J6jv3RdQ-20" value="②" style="rounded=0;orthogonalLoop=1;jettySize=auto;html=1;exitX=0.378;exitY=1;exitDx=0;exitDy=0;exitPerimeter=0;" parent="1" source="iFSi1h7vB-s2J6jv3RdQ-15" target="iFSi1h7vB-s2J6jv3RdQ-8" edge="1">
          <mxGeometry relative="1" as="geometry" />
        </mxCell>
        <mxCell id="iFSi1h7vB-s2J6jv3RdQ-21" value="③" style="rounded=0;orthogonalLoop=1;jettySize=auto;html=1;exitX=0.5;exitY=1;exitDx=0;exitDy=0;" parent="1" source="iFSi1h7vB-s2J6jv3RdQ-15" target="iFSi1h7vB-s2J6jv3RdQ-6" edge="1">
          <mxGeometry relative="1" as="geometry" />
        </mxCell>
        <mxCell id="iFSi1h7vB-s2J6jv3RdQ-22" value="④" style="rounded=0;orthogonalLoop=1;jettySize=auto;html=1;exitX=0.75;exitY=1;exitDx=0;exitDy=0;entryX=0.5;entryY=0;entryDx=0;entryDy=0;" parent="1" source="iFSi1h7vB-s2J6jv3RdQ-15" target="iFSi1h7vB-s2J6jv3RdQ-7" edge="1">
          <mxGeometry relative="1" as="geometry" />
        </mxCell>
        <mxCell id="iFSi1h7vB-s2J6jv3RdQ-26" value="⑤" style="edgeStyle=orthogonalEdgeStyle;rounded=0;orthogonalLoop=1;jettySize=auto;html=1;entryX=1;entryY=0.5;entryDx=0;entryDy=0;" parent="1" source="iFSi1h7vB-s2J6jv3RdQ-15" target="dccRftJVkBhWSeohc8ir-6" edge="1">
          <mxGeometry relative="1" as="geometry">
            <Array as="points">
              <mxPoint x="750" y="180" />
              <mxPoint x="750" y="561" />
            </Array>
          </mxGeometry>
        </mxCell>
        <mxCell id="iFSi1h7vB-s2J6jv3RdQ-15" value="app" style="rounded=0;whiteSpace=wrap;html=1;" parent="1" vertex="1">
          <mxGeometry x="138" y="160" width="542" height="40" as="geometry" />
        </mxCell>
        <mxCell id="iFSi1h7vB-s2J6jv3RdQ-16" value="Init" style="rounded=0;whiteSpace=wrap;html=1;" parent="1" vertex="1">
          <mxGeometry x="180" y="319" width="82" height="40" as="geometry" />
        </mxCell>
      </root>
    </mxGraphModel>
  </diagram>
</mxfile>
